<?xml version="1.0" encoding="UTF-8" standalone="no"?>
<!-- Created with Inkscape (http://www.inkscape.org/) -->

<svg
   width="48"
   height="48"
   viewBox="0 0 12.7 12.7"
   version="1.1"
   id="svg1"
   sodipodi:docname="logo.svg"
   xml:space="preserve"
   inkscape:version="1.3.1 (9b9bdc1480, 2023-11-25, custom)"
   xmlns:inkscape="http://www.inkscape.org/namespaces/inkscape"
   xmlns:sodipodi="http://sodipodi.sourceforge.net/DTD/sodipodi-0.dtd"
   xmlns="http://www.w3.org/2000/svg"
   xmlns:svg="http://www.w3.org/2000/svg"><sodipodi:namedview
     id="namedview1"
     pagecolor="#000000"
     bordercolor="#000000"
     borderopacity="0.25"
     inkscape:showpageshadow="2"
     inkscape:pageopacity="0.0"
     inkscape:pagecheckerboard="0"
     inkscape:deskcolor="#ffffff"
     inkscape:document-units="px"
     showgrid="false"
     inkscape:zoom="34.648232"
     inkscape:cx="27.10095"
     inkscape:cy="30.18913"
     inkscape:window-width="2504"
     inkscape:window-height="1376"
     inkscape:window-x="56"
     inkscape:window-y="27"
     inkscape:window-maximized="1"
     inkscape:current-layer="layer1" /><defs
     id="defs1" /><g
     inkscape:label="Calque 1"
     inkscape:groupmode="layer"
     id="layer1"><g
       id="layer1-0"
       transform="translate(-0.06244831,-0.06877094)"><path
         id="rect1"
         style="fill:#ffffff;fill-opacity:0;stroke:#ffffff;stroke-width:0.492485;stroke-dasharray:none"
         d="M 3.659125,8.9998566 C 1.6814519,9.8329301 1.2121561,10.15104 0.53019602,12.110759 1.3949598,11.630603 3.9973571,11.496509 4.0608796,11.52603 c 0,0 0.3118901,0.489333 0.328466,0.619465 l 1.9656102,-0.01165 1.9656097,-0.0089 c 0.016576,-0.130134 0.3284662,-0.619471 0.3284662,-0.619471 0.063522,-0.02953 2.6659183,0.104571 3.5306833,0.584728 C 11.497755,10.130355 11.02846,9.8122451 9.0507859,8.9791706 9.9626335,3.6167987 6.3549556,0.4448153 6.3549556,0.4448153 c 0,0 -3.6076772,3.1926696 -2.6958306,8.5550413 z" /><ellipse
         style="fill:#ffffff;fill-opacity:1;stroke:#ffffff;stroke-width:0.157897;stroke-dasharray:none"
         id="path2"
         cx="6.3416939"
         cy="6.1802158"
         rx="2.7926154"
         ry="2.6280217" /><path
         id="rect3"
         style="fill:#ffffff;fill-opacity:1;stroke:#ffffff;stroke-width:0.144752"
         d="M 6.3286772,0.37109447 6.9668467,12.556608 H 5.7084131 Z" /><text
         xml:space="preserve"
         style="font-size:10.3437px;font-family:Dyuthi;-inkscape-font-specification:'Dyuthi, Normal';fill:#4836f8;fill-opacity:1;stroke:#ffffff;stroke-width:0.25839;stroke-dasharray:none"
         x="2.9859095"
         y="9.8225679"
         id="text3"
         transform="scale(1.2174231,0.82140711)"><tspan
           id="tspan3"
           style="fill:#4836f8;stroke-width:0.25839;fill-opacity:1"
           x="2.9859095"
           y="9.8225679">s</tspan></text></g><path
       id="rect5"
       style="fill:#4836f8;stroke:none;stroke-width:0.141"
       d="M 3.7143858,7.2609865 C 4.564115,8.568849 6.2958947,8.6474288 6.2998665,8.891284 l 0.055925,3.43363 -0.4953672,-0.0046 c -0.075966,-6.61e-4 0.179303,-2.9722709 0.038921,-2.9787232 L 4.0623826,9.2571594 C 3.6408783,9.237786 3.6384697,7.1441401 3.7143858,7.2609865 Z"
       sodipodi:nodetypes="sscssss" /><path
       id="rect5-7"
       style="fill:#4836f8;stroke:none;stroke-width:0.141"
       d="M 8.895991,7.2561563 C 8.046262,8.5640188 6.314483,8.6425986 6.310511,8.8864538 l -0.05593,3.4336302 0.495367,-0.0046 C 6.825918,12.314823 6.570645,9.3432129 6.711028,9.3367606 L 8.547995,9.2523296 C 8.969499,9.2329566 8.971908,7.1393103 8.895991,7.2561563 Z"
       sodipodi:nodetypes="sscssss" /></g></svg>
